<?xml version="1.0" encoding="UTF-8"?> <svg xmlns="http://www.w3.org/2000/svg" width="1280" height="358" viewBox="0 0 1280 358" fill="none"><path d="M1162.22 215.628C1162.22 225.185 1154.47 232.933 1144.91 232.933C1135.36 232.933 1127.61 225.185 1127.61 215.628C1127.61 206.07 1135.36 198.322 1144.91 198.322C1154.47 198.322 1162.22 206.07 1162.22 215.628Z" fill="white"></path><path d="M1090.09 191.177H1118.93C1114.07 203.524 1106.68 213.441 1096.77 220.93C1087.05 228.419 1074.7 232.164 1059.73 232.164C1041.31 232.164 1025.82 225.586 1013.28 212.429C1000.73 199.273 994.452 182.575 994.452 162.334C994.452 142.094 1000.62 125.396 1012.97 112.24C1025.32 99.0834 1040.4 92.5052 1058.21 92.5052C1076.02 92.5052 1091.1 99.0834 1103.45 112.24C1115.79 125.396 1121.97 142.094 1121.97 162.334C1121.97 163.751 1121.66 166.585 1121.05 170.835L1120.45 174.479H1023.29C1024.1 183.182 1027.95 190.671 1034.83 196.945C1041.71 203.22 1050.01 206.357 1059.73 206.357C1072.28 206.357 1082.4 201.297 1090.09 191.177ZM1023.29 151.708H1096.16C1094.34 141.588 1090.19 133.492 1083.71 127.42C1077.23 121.348 1068.73 118.312 1058.21 118.312C1049.3 118.312 1041.61 121.449 1035.13 127.723C1028.86 133.796 1024.91 141.791 1023.29 151.708Z" fill="white"></path><path d="M885.086 186.623H912.411C914.03 199.779 922.126 206.357 936.699 206.357C944.795 206.357 950.867 204.839 954.916 201.803C958.964 198.767 960.988 194.719 960.988 189.659C960.988 185.206 958.458 181.765 953.397 179.336C948.54 176.705 942.468 174.681 935.181 173.264C928.097 171.645 920.912 169.722 913.625 167.496C906.541 165.067 900.469 161.019 895.409 155.352C890.551 149.684 888.122 142.398 888.122 133.492C888.122 121.753 892.373 112.037 900.874 104.346C909.577 96.4521 921.013 92.5052 935.181 92.5052C950.766 92.5052 962.809 96.3509 971.31 104.042C979.811 111.531 984.466 121.854 985.276 135.01H957.952C957.142 130.152 954.713 126.205 950.665 123.169C946.819 119.931 941.658 118.312 935.181 118.312C928.704 118.312 923.543 119.83 919.697 122.866C915.852 125.902 913.929 129.444 913.929 133.492C913.929 137.945 916.358 141.487 921.215 144.118C926.275 146.547 932.348 148.571 939.432 150.19C946.718 151.607 953.903 153.53 960.988 155.959C968.274 158.185 974.346 162.132 979.204 167.799C984.264 173.467 986.794 180.753 986.794 189.659C986.794 202.208 982.341 212.429 973.435 220.323C964.53 228.217 952.284 232.164 936.699 232.164C903.91 232.164 886.706 216.983 885.086 186.623Z" fill="white"></path><path d="M850.593 230.646L844.521 216.983C841.08 220.424 837.942 222.954 835.109 224.574C827.013 229.634 816.994 232.164 805.052 232.164C790.074 232.164 778.436 228.419 770.137 220.93C762.041 213.441 757.993 203.524 757.993 191.177C757.993 176.402 764.268 165.168 776.817 157.477C789.366 149.583 811.428 145.636 843.003 145.636V141.082C843.003 133.998 840.776 128.432 836.323 124.384C831.87 120.336 825.495 118.312 817.196 118.312C800.801 118.312 791.693 123.878 789.872 135.01H762.547C763.357 122.461 768.518 112.24 778.031 104.346C787.746 96.4521 800.801 92.5052 817.196 92.5052C832.984 92.5052 845.735 97.1605 855.45 106.471C865.368 115.579 870.327 127.116 870.327 141.082V230.646H850.593ZM843.003 177.211V169.925C820.333 169.925 805.052 171.847 797.158 175.693C789.264 179.336 785.318 185.004 785.318 192.695C785.318 196.743 787.24 200.285 791.086 203.321C794.932 206.357 800.093 207.875 806.57 207.875C817.702 207.875 826.507 204.94 832.984 199.071C839.663 193.201 843.003 185.914 843.003 177.211Z" fill="white"></path><path d="M720.876 180.551H749.719C746.48 195.731 739.396 208.179 728.467 217.894C717.739 227.407 704.583 232.164 688.998 232.164C670.579 232.164 655.095 225.586 642.546 212.429C629.997 199.273 623.723 182.575 623.723 162.334C623.723 142.094 629.997 125.396 642.546 112.24C655.095 99.0834 670.579 92.5052 688.998 92.5052C704.583 92.5052 717.739 97.3629 728.467 107.078C739.396 116.591 746.48 128.938 749.719 144.118H720.876C715.816 126.914 705.19 118.312 688.998 118.312C678.878 118.312 669.972 122.562 662.281 131.063C654.792 139.362 651.047 149.785 651.047 162.334C651.047 174.883 654.792 185.408 662.281 193.909C669.972 202.208 678.878 206.357 688.998 206.357C705.19 206.357 715.816 197.755 720.876 180.551Z" fill="white"></path><path d="M478.557 230.646L433.016 94.0233H460.341L490.701 188.141L521.062 94.0233H539.278L569.639 188.141L599.999 94.0233H627.324L581.783 230.646H559.012L530.17 141.082L501.327 230.646H478.557Z" fill="white"></path><path d="M345.457 193.909C353.148 202.208 362.054 206.357 372.174 206.357C382.294 206.357 391.099 202.208 398.588 193.909C406.279 185.408 410.125 174.883 410.125 162.334C410.125 149.785 406.279 139.362 398.588 131.063C391.099 122.562 382.294 118.312 372.174 118.312C362.054 118.312 353.148 122.562 345.457 131.063C337.968 139.362 334.223 149.785 334.223 162.334C334.223 174.883 337.968 185.408 345.457 193.909ZM418.625 212.429C406.076 225.586 390.593 232.164 372.174 232.164C353.755 232.164 338.271 225.586 325.722 212.429C313.173 199.273 306.899 182.575 306.899 162.334C306.899 142.094 313.173 125.396 325.722 112.24C338.271 99.0834 353.755 92.5052 372.174 92.5052C390.593 92.5052 406.076 99.0834 418.625 112.24C431.175 125.396 437.449 142.094 437.449 162.334C437.449 182.575 431.175 199.273 418.625 212.429Z" fill="white"></path><path d="M172.206 230.646V39.3743H199.53V107.686C202.566 104.649 205.805 102.119 209.245 100.095C218.151 95.0353 227.563 92.5052 237.481 92.5052C252.863 92.5052 265.817 98.0713 276.342 109.204C286.867 120.336 292.13 134.504 292.13 151.708V230.646H264.805V151.708C264.805 142.803 261.567 135.01 255.09 128.331C248.815 121.651 241.428 118.312 232.927 118.312C223.818 118.312 215.925 121.651 209.245 128.331C202.769 134.808 199.53 142.6 199.53 151.708V230.646H172.206Z" fill="white"></path><path d="M53.2824 186.623H80.6069C82.2261 199.779 90.3223 206.357 104.895 206.357C112.991 206.357 119.064 204.839 123.112 201.803C127.16 198.767 129.184 194.719 129.184 189.659C129.184 185.206 126.654 181.765 121.594 179.336C116.736 176.705 110.664 174.681 103.377 173.264C96.2932 171.645 89.1079 169.722 81.8213 167.496C74.7372 165.067 68.6651 161.019 63.605 155.352C58.7473 149.684 56.3185 142.398 56.3185 133.492C56.3185 121.753 60.569 112.037 69.0699 104.346C77.7733 96.4521 89.2091 92.5052 103.377 92.5052C118.962 92.5052 131.005 96.3509 139.506 104.042C148.007 111.531 152.663 121.854 153.472 135.01H126.148C125.338 130.152 122.909 126.205 118.861 123.169C115.016 119.931 109.854 118.312 103.377 118.312C96.9004 118.312 91.7391 119.83 87.8934 122.866C84.0478 125.902 82.1249 129.444 82.1249 133.492C82.1249 137.945 84.5538 141.487 89.4115 144.118C94.4716 146.547 100.544 148.571 107.628 150.19C114.914 151.607 122.1 153.53 129.184 155.959C136.47 158.185 142.542 162.132 147.4 167.799C152.46 173.467 154.99 180.753 154.99 189.659C154.99 202.208 150.537 212.429 141.632 220.323C132.726 228.217 120.48 232.164 104.895 232.164C72.106 232.164 54.9017 216.983 53.2824 186.623Z" fill="white"></path><path d="M1216.94 129.843L1216.94 129.848V0.440125L1279.99 65.1301H1280V65.1423L1280 65.1443L1280 65.1463L1280 357.241H59.6214V357.236L59.6163 357.241L0 301.696H59.6214V301.694H1216.94V129.843Z" fill="white"></path><path d="M1216.94 129.843L1216.94 129.848V0.440125L1279.99 65.1301H1280V65.1423L1280 65.1443L1280 65.1463L1280 357.241H59.6214V357.236L59.6163 357.241L0 301.696H59.6214V301.694H1216.94V129.843Z" fill="white"></path></svg>
